<svg id="Layer_1" data-name="Layer 1" xmlns="http://www.w3.org/2000/svg" viewBox="0 0 1292.52 405.29"><defs><style>.cls-1{fill:#2c4b9b;}.cls-2{fill:#e41b22;}.cls-3{fill:#29235c;}.cls-4{fill:#fff;}.cls-5{fill:#fee0b4;}.cls-6{fill:#ea5297;}.cls-7{fill:#ee721b;}</style></defs><path class="cls-1" d="M172.08,397.14V578.77H170a181.22,181.22,0,0,1-18.78-.88h-.08c-32.09-2.73-60.65-12.43-82.07-26.79-2.48-1.61-4.89-3.29-7.14-5.06-20.29-15.72-22.14-41-22.14-63,0-50.15,52.55-85.85,130.21-85.85Z"/><path class="cls-2" d="M172.08,397V578.67h2.09a178.28,178.28,0,0,0,18.77-.89H193c32.09-2.72,60.65-12.43,82.07-26.79,2.49-1.61,4.89-3.29,7.14-5.06,20.3-15.72,22.14-41,22.14-63,0-50.14-52.54-85.84-130.2-85.84Z"/><path class="cls-3" d="M172.08,142.79v208H60.73C3.45,345.36,0,294.1,0,256.63c0-37.78,18.53-69.31,61.93-90.41,4.26-2.09,8.67-4.09,13.24-5.86a235,235,0,0,1,40.35-12.11A270.89,270.89,0,0,1,170,142.79Z"/><path class="cls-4" d="M172.08,108.22V332.45a18.08,18.08,0,0,1-2.08.08A112.18,112.18,0,0,1,57.76,220.37a110.73,110.73,0,0,1,11.31-49.1,97.25,97.25,0,0,1,6.1-10.91,112.21,112.21,0,0,1,27.2-29.52,92.73,92.73,0,0,1,10.51-7.06,108.11,108.11,0,0,1,23.18-10.43A112.46,112.46,0,0,1,170,108.14,18.08,18.08,0,0,1,172.08,108.22Z"/><path class="cls-1" d="M172.08,17.32V199H170a181.22,181.22,0,0,1-18.78-.88h-.08c-32.09-2.73-60.65-12.44-82.07-26.8-2.48-1.6-4.89-3.28-7.14-5.05-20.29-15.72-22.14-41-22.14-63.06C39.79,53,92.34,17.32,170,17.32Z"/><path class="cls-5" d="M172.08,71.07v94.67a17.4,17.4,0,0,1-2.08.08c-22.07,0-41.64-6.9-54.48-17.57a44.19,44.19,0,0,1-13.15-17.41,33.25,33.25,0,0,1-2.49-12.43,30.11,30.11,0,0,1,.56-6,32.71,32.71,0,0,1,1.93-6.5c8-20,35.3-34.9,67.63-34.9A17.4,17.4,0,0,1,172.08,71.07Z"/><circle class="cls-6" cx="124.43" cy="127.36" r="11.63"/><ellipse class="cls-3" cx="146.92" cy="105.26" rx="5.35" ry="4.97"/><path class="cls-7" d="M170,71c-.25,8.15-5.46,15.83-14.25,22.29-7,5.21-16.41,9.7-27.47,13.11a157.93,157.93,0,0,1-27.79,6,34.21,34.21,0,0,1,1.94-6.46C110.43,85.81,137.65,71,170,71Z"/><path class="cls-2" d="M173.77,220.6v95.47a9.83,9.83,0,0,0-2.16-.16,21.28,21.28,0,0,0-9.55,2.32c-14,7.38-30.16-3.13-30.16-18.13a19,19,0,0,1,.32-3.61,23.87,23.87,0,0,0,.32-3.37,20.84,20.84,0,0,0-6.26-14.84A20.14,20.14,0,0,1,120,263.6a20.54,20.54,0,0,1,17.65-20.46,20.52,20.52,0,0,0,15.49-11.23,20.42,20.42,0,0,1,18.45-11.47A9.83,9.83,0,0,1,173.77,220.6Z"/><path class="cls-4" d="M173.77,257.88v25a16.89,16.89,0,0,1-2.08.16,12.68,12.68,0,1,1,0-25.35A16.89,16.89,0,0,1,173.77,257.88Z"/><path class="cls-1" d="M172.08,197.51v12.67c-4.33,4.82-12.51,9.95-22.46,13.56-16.37,5.94-39.55,2.65-33.78-.56,22.15-12.35,16.93-18.45,33.3-24.39.72-.24,1.36-.48,2-.72h.08C161.89,194.54,168.47,194.86,172.08,197.51Z"/><path class="cls-2" d="M172.08,142.69V350.63H283.43c57.28-5.38,60.73-56.64,60.73-94.1,0-37.79-18.53-69.32-61.93-90.42C278,164,273.57,162,269,160.26a233.88,233.88,0,0,0-40.35-12.12,270.87,270.87,0,0,0-54.47-5.45Z"/><path class="cls-2" d="M172.08,108.11V332.34a18.26,18.26,0,0,0,2.09.08A112.18,112.18,0,0,0,286.4,220.26a110.68,110.68,0,0,0-11.31-49.09,95.69,95.69,0,0,0-6.1-10.91,112.37,112.37,0,0,0-27.19-29.53,94.08,94.08,0,0,0-10.51-7.06,107.45,107.45,0,0,0-23.19-10.42A112.45,112.45,0,0,0,174.17,108,18.26,18.26,0,0,0,172.08,108.11Z"/><path class="cls-2" d="M172.08,17.22V198.85h2.09a181,181,0,0,0,18.77-.89H193c32.09-2.73,60.65-12.43,82.07-26.79,2.49-1.61,4.89-3.29,7.14-5.06,20.3-15.72,22.14-41,22.14-63.05,0-50.14-52.54-85.84-130.2-85.84Z"/><path class="cls-4" d="M172.08,71v94.66a17.57,17.57,0,0,0,2.09.08c22.06,0,41.63-6.9,54.47-17.57a44.22,44.22,0,0,0,13.16-17.41,33.44,33.44,0,0,0,2.48-12.43,30.11,30.11,0,0,0-.56-6,33.55,33.55,0,0,0-1.92-6.5c-8-20-35.3-34.89-67.63-34.89A17.57,17.57,0,0,0,172.08,71Z"/><circle class="cls-1" cx="219.73" cy="127.25" r="11.63"/><ellipse class="cls-3" cx="196.92" cy="104.7" rx="5.35" ry="4.97"/><path class="cls-2" d="M174.2,70.91c.25,8.15,5.46,15.83,14.26,22.3,7,5.2,16.41,9.69,27.47,13.1a156.84,156.84,0,0,0,27.79,6,35.19,35.19,0,0,0-1.94-6.46C233.74,85.7,206.52,70.91,174.2,70.91Z"/><path class="cls-1" d="M217.89,278.28a20.82,20.82,0,0,0-6.26,14.84,24.15,24.15,0,0,0,.32,3.37,18.84,18.84,0,0,1,.32,3.61c0,15-16.2,25.51-30.16,18.13a21.16,21.16,0,0,0-9.55-2.33h-.47V220.44h.47A20.43,20.43,0,0,1,191,231.91a20.55,20.55,0,0,0,15.48,11.23,20.52,20.52,0,0,1,17.65,20.46A20.14,20.14,0,0,1,217.89,278.28Z"/><path class="cls-4" d="M185.16,270.39a12.7,12.7,0,0,1-12.68,12.67h-.39V257.72h.39A12.71,12.71,0,0,1,185.16,270.39Z"/><path class="cls-2" d="M172.08,197.4v12.68c4.33,4.81,12.52,9.94,22.46,13.55,16.37,5.94,39.56,2.65,33.78-.56-22.14-12.35-16.93-18.45-33.29-24.39-.73-.24-1.37-.48-2-.72h-.08C182.27,194.43,175.69,194.75,172.08,197.4Z"/><path class="cls-2" d="M458.63,322.58c0,10.3.83,25.34,1.46,27.95H431.48c-.84-2.14-1.47-7.84-1.52-10.57C426,346,418.69,353,399.55,353c-26.08,0-37.09-17.15-37.09-33.93,0-24.64,19.79-36,51.51-36h15.44v-6.61c0-7.69-2.77-15.26-16.66-15.26-12.64,0-15.41,5.38-16.79,13.21H367.48c1.62-19.22,13.51-34.78,46.4-34.59,29,.18,44.75,11.5,44.75,37.25Zm-29.19-21.29H417.23c-18,0-24.74,5.5-24.74,15.94,0,7.83,4.81,14.42,15.57,14.42,19,0,21.38-13.23,21.38-27.52Z"/><path class="cls-2" d="M485.74,198h30v55.87c4.47-7,13.42-14,31-14,29.44,0,44.13,24.32,44.13,54.66,0,31-15.93,58.53-47,58.53-16.09,0-23.18-4.9-28.43-12.76a53.07,53.07,0,0,1-1.15,10.25H485.53c.21-11.73.21-23.64.21-35.37Zm74.64,97.12c0-18-6.7-31.26-22.87-31.26-17.11,0-23.18,11.15-23.18,33.19,0,18.22,5.39,32.21,22.84,32.21C552.39,329.23,560.38,315.54,560.38,295.09Z"/><path class="cls-2" d="M706.62,319.1c0,10.42,0,21.76.21,31.43H677.48c-.42-2.9-.63-8.69-.81-12.48-6.41,10.86-16,15-29.78,15-22,0-36.12-13.39-36.12-40.22V242.35H640.7v64.47c0,11.94,3.7,21.81,16.66,21.81,13.66,0,19.31-7.28,19.31-28.7V242.35h30Z"/><path class="cls-2" d="M754,318c2.26,8.62,9.3,13.46,20.48,13.46s15.08-4,15.08-10.52c0-6.95-4.65-9.67-20.14-13.48-35.24-8.68-41-19.59-41-34.86,0-15.89,11.23-32.76,43.87-32.76,32.81,0,43.92,17.91,44.85,32.57H788.67c-1-4-3.63-11.55-17.71-11.55-9.9,0-13.1,4.38-13.1,9.25,0,5.38,3.35,8,20.92,12.08C814.87,290.59,820,303,820,318.82c0,17.92-13.63,34.22-46.61,34.22s-46.4-15.85-48.78-35Z"/><path class="cls-2" d="M868.69,198v57.16c4.75-7,13.52-15.28,31-15.28,20.17,0,36.24,11.93,36.24,41.28v69.4H906.15V285.61c0-14.07-5-21.54-17.55-21.54-16.64,0-19.91,12.38-19.91,29.07v57.39h-30V198Z"/><path class="cls-2" d="M992.84,288c7.95-10.8,22.31-27.6,37.23-45.65h34.35l-37.7,40.86L1068,350.53h-33.93l-27.37-48.12-13.85,13.41v34.71h-30V198h30Z"/><path class="cls-2" d="M1171.31,322.58c0,10.3.83,25.34,1.46,27.95h-28.61c-.84-2.14-1.47-7.84-1.52-10.57-3.92,6.08-11.27,13.08-30.41,13.08-26.08,0-37.09-17.15-37.09-33.93,0-24.64,19.79-36,51.51-36h15.44v-6.61c0-7.69-2.77-15.26-16.66-15.26-12.64,0-15.41,5.38-16.79,13.21h-28.48c1.62-19.22,13.51-34.78,46.4-34.59,29,.18,44.75,11.5,44.75,37.25Zm-29.19-21.29h-12.21c-18,0-24.74,5.5-24.74,15.94,0,7.83,4.81,14.42,15.57,14.42,19,0,21.38-13.23,21.38-27.52Z"/><path class="cls-2" d="M335.88,25.3h29.95V52H335.88Zm0,44.38h29.95V177.86H335.88Z"/><path class="cls-2" d="M413.76,145.34c2.27,8.61,9.31,13.45,20.48,13.45s15.09-4,15.09-10.52c0-6.94-4.65-9.67-20.15-13.47-35.24-8.69-41-19.6-41-34.86,0-15.9,11.24-32.77,43.87-32.77,32.82,0,43.92,17.92,44.86,32.57H448.42c-1-4-3.63-11.55-17.72-11.55-9.9,0-13.1,4.39-13.1,9.25,0,5.39,3.36,8,20.92,12.08,36.1,8.4,41.2,20.77,41.2,36.63,0,17.91-13.62,34.22-46.61,34.22s-46.4-15.86-48.77-35Z"/><path class="cls-2" d="M487.75,69.68h16.68V40.39h29.95V69.68h21.19V92.2H534.38v53.39c0,8.2,2.51,11.4,11.44,11.4a55.18,55.18,0,0,0,6.82-.34v20.61c-5.95,2-14.09,2.06-20.14,2.06-21.1,0-28.07-11.29-28.07-30.21V92.2H487.75Z"/><path class="cls-2" d="M573.09,99c0-10.75,0-20.29-.2-29.34h29.37c.39,2.42.79,13.16.79,19,4.77-12.36,16.31-21.4,34.71-21.5V95.75c-21.74-.56-34.71,5.29-34.71,34.94v47.17h-30Z"/><path class="cls-2" d="M754.21,123.56c0,32.73-19.59,56.81-53.85,56.81-33.55,0-53.13-23.94-53.13-56.23,0-33.39,20.19-57,54.54-57C733.61,67.17,754.21,89.64,754.21,123.56Zm-76.59.21c0,20.82,9,33.16,23.39,33.16,14.66,0,22.81-12.35,22.81-33,0-22.64-8.31-33.34-23.23-33.34C686.7,90.61,677.62,100.9,677.62,123.77Z"/></svg>