<svg id="Layer_1" data-name="Layer 1" xmlns="http://www.w3.org/2000/svg" viewBox="0 0 977.03 368.88"><defs><style>.cls-1{fill:#29235c;}.cls-2{fill:#fff;}.cls-3{fill:#2c4b9b;}.cls-4{fill:#fee0b4;}.cls-5{fill:#ea5297;}.cls-6{fill:#ee721b;}.cls-7{fill:#e41b22;}</style></defs><path class="cls-1" d="M172.08,125.58V333.52H60.73C3.45,328.15,0,276.88,0,239.42,0,201.63,18.53,170.1,61.93,149c4.26-2.08,8.67-4.09,13.24-5.85A234.15,234.15,0,0,1,115.52,131,270.9,270.9,0,0,1,170,125.58Z"/><path class="cls-2" d="M172.08,91V315.23a18.08,18.08,0,0,1-2.08.08A112.18,112.18,0,0,1,57.76,203.16a110.69,110.69,0,0,1,11.31-49.1,97.25,97.25,0,0,1,6.1-10.91,112.41,112.41,0,0,1,27.2-29.53,92.65,92.65,0,0,1,10.51-7.05,107.14,107.14,0,0,1,23.18-10.43A112.46,112.46,0,0,1,170,90.92,18.08,18.08,0,0,1,172.08,91Z"/><path class="cls-3" d="M172.08.11V181.74H170a181.2,181.2,0,0,1-18.78-.89h-.08c-32.09-2.72-60.65-12.43-82.07-26.79-2.48-1.61-4.89-3.29-7.14-5.06-20.29-15.72-22.14-41-22.14-63C39.79,35.81,92.34.11,170,.11Z"/><path class="cls-4" d="M172.08,53.86v94.66a17.4,17.4,0,0,1-2.08.08c-22.07,0-41.64-6.9-54.48-17.57a44.19,44.19,0,0,1-13.15-17.41,33.25,33.25,0,0,1-2.49-12.43,30.11,30.11,0,0,1,.56-6,32.62,32.62,0,0,1,1.93-6.49c8-20.06,35.3-34.9,67.63-34.9A17.4,17.4,0,0,1,172.08,53.86Z"/><circle class="cls-5" cx="124.43" cy="110.14" r="11.63"/><ellipse class="cls-1" cx="146.92" cy="88.04" rx="5.35" ry="4.97"/><path class="cls-6" d="M170,53.8c-.25,8.15-5.46,15.83-14.25,22.3-7,5.2-16.41,9.69-27.47,13.1a157,157,0,0,1-27.79,6,34.43,34.43,0,0,1,1.94-6.46C110.43,68.59,137.65,53.8,170,53.8Z"/><path class="cls-7" d="M173.77,203.38v95.47a9.83,9.83,0,0,0-2.16-.16,21.16,21.16,0,0,0-9.55,2.33c-14,7.38-30.16-3.13-30.16-18.13a18.84,18.84,0,0,1,.32-3.61,24.15,24.15,0,0,0,.32-3.37,20.86,20.86,0,0,0-6.26-14.85A20.12,20.12,0,0,1,120,246.38a20.53,20.53,0,0,1,17.65-20.45,20.57,20.57,0,0,0,15.49-11.23,20.41,20.41,0,0,1,18.45-11.48A9.83,9.83,0,0,1,173.77,203.38Z"/><path class="cls-2" d="M173.77,240.66v25a16.89,16.89,0,0,1-2.08.16,12.68,12.68,0,1,1,0-25.35A16.89,16.89,0,0,1,173.77,240.66Z"/><path class="cls-3" d="M172.08,180.29V193c-4.33,4.81-12.51,9.94-22.46,13.55-16.37,5.94-39.55,2.65-33.78-.56,22.15-12.35,16.93-18.45,33.3-24.39.72-.24,1.36-.48,2-.72h.08C161.89,177.32,168.47,177.64,172.08,180.29Z"/><path class="cls-7" d="M172.08,125.47V333.41H283.43c57.28-5.37,60.73-56.64,60.73-94.1,0-37.79-18.53-69.31-61.93-90.41-4.25-2.09-8.66-4.09-13.24-5.86a233.87,233.87,0,0,0-40.35-12.11,270.86,270.86,0,0,0-54.47-5.46Z"/><path class="cls-7" d="M172.08,90.89V315.12a18.26,18.26,0,0,0,2.09.08A112.18,112.18,0,0,0,286.4,203.05,110.69,110.69,0,0,0,275.09,154,95.69,95.69,0,0,0,269,143a112.17,112.17,0,0,0-27.19-29.52,91.42,91.42,0,0,0-10.51-7.06A108,108,0,0,0,208.1,96a112.45,112.45,0,0,0-33.93-5.22A18.26,18.26,0,0,0,172.08,90.89Z"/><path class="cls-7" d="M172.08,0V181.63h2.09a181,181,0,0,0,18.77-.88H193c32.09-2.73,60.65-12.44,82.07-26.8,2.49-1.6,4.89-3.29,7.14-5,20.3-15.73,22.14-41,22.14-63.06C304.37,35.7,251.83,0,174.17,0Z"/><path class="cls-2" d="M172.08,53.75v94.67a17.57,17.57,0,0,0,2.09.08c22.06,0,41.63-6.9,54.47-17.57a44.29,44.29,0,0,0,13.16-17.41,33.49,33.49,0,0,0,2.48-12.44,30,30,0,0,0-.56-6,33.14,33.14,0,0,0-1.92-6.5c-8-20.06-35.3-34.9-67.63-34.9A17.57,17.57,0,0,0,172.08,53.75Z"/><circle class="cls-3" cx="219.73" cy="110.03" r="11.63"/><ellipse class="cls-1" cx="196.92" cy="87.48" rx="5.35" ry="4.97"/><path class="cls-7" d="M174.2,53.69c.25,8.15,5.46,15.84,14.26,22.3,7,5.21,16.41,9.69,27.47,13.11a158.64,158.64,0,0,0,27.79,6,35.28,35.28,0,0,0-1.94-6.47C233.74,68.49,206.52,53.69,174.2,53.69Z"/><path class="cls-2" d="M217.89,261.07a20.82,20.82,0,0,0-6.26,14.84,24.15,24.15,0,0,0,.32,3.37,18.84,18.84,0,0,1,.32,3.61c0,15-16.2,25.51-30.16,18.13a21.16,21.16,0,0,0-9.55-2.33h-.47V203.23h.47A20.43,20.43,0,0,1,191,214.7a20.55,20.55,0,0,0,15.48,11.23,20.52,20.52,0,0,1,17.65,20.46A20.14,20.14,0,0,1,217.89,261.07Z"/><path class="cls-3" d="M185.16,253.18a12.7,12.7,0,0,1-12.68,12.67h-.39V240.51h.39A12.71,12.71,0,0,1,185.16,253.18Z"/><path class="cls-7" d="M172.08,180.18v12.68c4.33,4.81,12.52,9.95,22.46,13.56,16.37,5.93,39.56,2.65,33.78-.56C206.18,193.5,211.39,187.4,195,181.47c-.73-.24-1.37-.48-2-.72h-.08C182.27,177.22,175.69,177.54,172.08,180.18Z"/><path class="cls-7" d="M424.87,309.52c0,7.39.6,18.19,1.05,20.06H405.38A31.43,31.43,0,0,1,404.3,322c-2.82,4.36-8.1,9.39-21.83,9.39-18.72,0-26.61-12.3-26.61-24.35,0-17.68,14.2-25.84,37-25.84H403.9v-4.75c0-5.52-2-10.95-11.95-10.95-9.08,0-11.07,3.86-12.05,9.48H359.45c1.17-13.79,9.7-25,33.31-24.83,20.79.14,32.11,8.26,32.11,26.74Zm-20.95-15.28h-8.76c-13,0-17.75,3.95-17.75,11.44,0,5.62,3.44,10.35,11.17,10.35,13.66,0,15.34-9.49,15.34-19.75Z"/><path class="cls-7" d="M444.33,220.09h21.5v40.1c3.2-5,9.62-10.05,22.21-10.05,21.13,0,31.67,17.46,31.67,39.24,0,22.24-11.43,42-33.75,42-11.54,0-16.63-3.51-20.4-9.16a37.8,37.8,0,0,1-.83,7.36H444.18c.15-8.42.15-17,.15-25.38Zm53.57,69.7c0-12.94-4.81-22.43-16.42-22.43-12.28,0-16.63,8-16.63,23.82,0,13.07,3.87,23.12,16.39,23.12C492.17,314.3,497.9,304.47,497.9,289.79Z"/><path class="cls-7" d="M602.86,307c0,7.48,0,15.62.15,22.56H581.94c-.3-2.08-.45-6.24-.58-8.95-4.6,7.79-11.46,10.75-21.38,10.75-15.81,0-25.92-9.61-25.92-28.86V251.94h21.48v46.27c0,8.57,2.66,15.65,12,15.65,9.81,0,13.86-5.22,13.86-20.59V251.94h21.5Z"/><path class="cls-7" d="M636.87,306.24c1.63,6.19,6.68,9.66,14.7,9.66s10.83-2.85,10.83-7.55c0-5-3.34-6.94-14.46-9.67-25.29-6.24-29.43-14.07-29.43-25,0-11.41,8.06-23.52,31.48-23.52s31.52,12.86,32.19,23.38H661.74c-.69-2.87-2.6-8.29-12.71-8.29-7.11,0-9.4,3.15-9.4,6.64,0,3.86,2.41,5.73,15,8.67,25.91,6,29.57,14.9,29.57,26.28,0,12.86-9.78,24.56-33.45,24.56s-33.3-11.38-35-25.14Z"/><path class="cls-7" d="M719.17,220.09v41c3.41-5,9.7-11,22.24-11,14.48,0,26,8.57,26,29.63v49.81H746.06V283c0-10.1-3.58-15.46-12.6-15.46-11.94,0-14.29,8.88-14.29,20.86v41.19H697.68V220.09Z"/><path class="cls-7" d="M808.27,284.7c5.72-7.75,16-19.8,26.73-32.76h24.65l-27.06,29.32,29.62,48.32H837.86L818.21,295l-9.94,9.63v24.91H786.78V220.09h21.49Z"/><path class="cls-7" d="M936.36,309.52c0,7.39.6,18.19,1,20.06H916.88a31.92,31.92,0,0,1-1.09-7.59c-2.81,4.36-8.09,9.39-21.83,9.39-18.71,0-26.61-12.3-26.61-24.35,0-17.68,14.2-25.84,37-25.84H915.4v-4.75c0-5.52-2-10.95-12-10.95-9.07,0-11.06,3.86-12.05,9.48H871c1.16-13.79,9.7-25,33.3-24.83,20.8.14,32.11,8.26,32.11,26.74Zm-21-15.28h-8.75c-13,0-17.76,3.95-17.76,11.44,0,5.62,3.45,10.35,11.18,10.35,13.65,0,15.33-9.49,15.33-19.75Z"/><path class="cls-7" d="M359.15,86.13h21.5V105.3h-21.5Zm0,31.85h21.5v77.64h-21.5Z"/><path class="cls-7" d="M415.05,172.28c1.62,6.18,6.68,9.65,14.7,9.65s10.82-2.84,10.82-7.55c0-5-3.33-6.94-14.45-9.67-25.3-6.23-29.44-14.06-29.44-25,0-11.4,8.07-23.51,31.49-23.51s31.52,12.86,32.19,23.37H439.92c-.69-2.86-2.6-8.28-12.71-8.28-7.11,0-9.41,3.14-9.41,6.64,0,3.86,2.41,5.72,15,8.66,25.9,6,29.57,14.91,29.57,26.29,0,12.86-9.78,24.56-33.45,24.56s-33.31-11.38-35-25.14Z"/><path class="cls-7" d="M468.15,118h12V97h21.5v21h15.2v16.16h-15.2v38.32c0,5.89,1.79,8.18,8.2,8.18a40,40,0,0,0,4.9-.24v14.78c-4.27,1.45-10.11,1.49-14.45,1.49-15.15,0-20.15-8.1-20.15-21.69V134.14h-12Z"/><path class="cls-7" d="M529.4,139c0-7.72,0-14.57-.15-21.06h21.08c.29,1.74.57,9.44.57,13.63,3.42-8.87,11.7-15.36,24.91-15.43v20.51c-15.6-.4-24.91,3.8-24.91,25.08v33.85H529.4Z"/><path class="cls-7" d="M659.39,156.65c0,23.49-14.06,40.77-38.65,40.77-24.08,0-38.13-17.18-38.13-40.36,0-24,14.49-40.88,39.14-40.88C644.61,116.18,659.39,132.31,659.39,156.65Zm-55,.15c0,14.94,6.43,23.8,16.78,23.8,10.53,0,16.38-8.86,16.38-23.67,0-16.25-6-23.93-16.67-23.93C610.94,133,604.42,140.38,604.42,156.8Z"/></svg>